# MagicaVoxel @ Ephtracy

# group
o 

# material
mtllib grassblockye-3.mtl
usemtl palette

# normals
vn -1 0 0
vn 1 0 0
vn 0 0 1
vn 0 0 -1
vn 0 -1 0
vn 0 1 0

# texcoords
vt 0.962891 0.5
vt 0.990234 0.5
vt 0.994141 0.5

# verts
v -0.8 0 0.7
v -0.8 0 0.6
v -0.8 0 -0.2
v -0.8 0 -0.3
v -0.8 0.1 0.7
v -0.8 0.1 0.6
v -0.8 0.1 -0.2
v -0.8 0.1 -0.3
v -0.7 0 -0.4
v -0.7 0 -0.5
v -0.7 0 -0.6
v -0.7 0.1 -0.4
v -0.7 0.1 -0.5
v -0.7 0.1 -0.6
v -0.6 0 0.6
v -0.6 0 0.5
v -0.6 0 0.4
v -0.6 0 0.1
v -0.6 0 -0.1
v -0.6 0.1 0.6
v -0.6 0.1 0.5
v -0.6 0.1 0.4
v -0.6 0.1 0.1
v -0.6 0.1 -0.1
v -0.6 0.1 -0.4
v -0.6 0.1 -0.5
v -0.6 0.2 0.5
v -0.6 0.2 0.4
v -0.6 0.2 -0.4
v -0.6 0.2 -0.5
v -0.5 0.1 0
v -0.5 0.1 -0.1
v -0.5 0.2 0
v -0.5 0.2 -0.1
v -0.3 0 -0.4
v -0.3 0 -0.5
v -0.3 0.1 -0.4
v -0.3 0.1 -0.5
v -0.2 0 0.7
v -0.2 0 0.6
v -0.2 0 0.3
v -0.2 0 0.2
v -0.2 0 0
v -0.2 0 -0.1
v -0.2 0 -0.2
v -0.2 0.1 0.7
v -0.2 0.1 0.6
v -0.2 0.1 0.3
v -0.2 0.1 0.2
v -0.2 0.1 0
v -0.2 0.1 -0.1
v -0.2 0.1 -0.2
v -0.1 0 -0.4
v -0.1 0 -0.6
v -0.1 0.1 0
v -0.1 0.1 -0.1
v -0.1 0.1 -0.4
v -0.1 0.1 -0.6
v -0.1 0.2 0
v -0.1 0.2 -0.1
v 0 0 0.5
v 0 0 0.4
v 0 0 0.3
v 0 0.1 0.5
v 0 0.1 0.4
v 0 0.1 0.3
v 0 0.1 -0.5
v 0 0.1 -0.6
v 0 0.2 -0.5
v 0 0.2 -0.6
v 0.1 0 -0.7
v 0.1 0 -0.8
v 0.1 0.1 0.4
v 0.1 0.1 0.3
v 0.1 0.1 -0.7
v 0.1 0.1 -0.8
v 0.1 0.2 0.4
v 0.1 0.2 0.3
v 0.2 0 -0.1
v 0.2 0 -0.2
v 0.2 0.1 -0.1
v 0.2 0.1 -0.2
v 0.4 0 0.7
v 0.4 0 0.6
v 0.4 0 0.5
v 0.4 0 -0.4
v 0.4 0 -0.6
v 0.4 0.1 0.7
v 0.4 0.1 0.6
v 0.4 0.1 -0.5
v 0.4 0.1 -0.6
v 0.4 0.2 0.6
v 0.4 0.2 0.5
v 0.4 0.2 -0.4
v 0.4 0.2 -0.5
v 0.5 0 0.3
v 0.5 0 0.2
v 0.5 0 0.1
v 0.5 0 0
v 0.5 0 -0.1
v 0.5 0.1 0.3
v 0.5 0.1 0.2
v 0.5 0.1 0.1
v 0.5 0.1 0
v 0.5 0.1 -0.1
v 0.5 0.2 0
v 0.5 0.2 -0.1
v -0.7 0 0.7
v -0.7 0 0.6
v -0.7 0 -0.2
v -0.7 0 -0.3
v -0.7 0.1 0.7
v -0.7 0.1 0.6
v -0.7 0.1 -0.2
v -0.7 0.1 -0.3
v -0.5 0 -0.4
v -0.5 0 -0.5
v -0.5 0 -0.6
v -0.5 0.1 0.5
v -0.5 0.1 0.4
v -0.5 0.1 -0.5
v -0.5 0.1 -0.6
v -0.5 0.2 0.5
v -0.5 0.2 0.4
v -0.5 0.2 -0.4
v -0.5 0.2 -0.5
v -0.4 0 0.6
v -0.4 0 0.5
v -0.4 0 0.4
v -0.4 0 0.1
v -0.4 0 0
v -0.4 0 -0.1
v -0.4 0.1 0.6
v -0.4 0.1 0.5
v -0.4 0.1 0.4
v -0.4 0.1 0.1
v -0.4 0.1 0
v -0.4 0.2 0
v -0.4 0.2 -0.1
v -0.2 0 -0.4
v -0.2 0 -0.5
v -0.2 0.1 -0.4
v -0.2 0.1 -0.5
v -0.1 0 0.7
v -0.1 0 0.6
v -0.1 0 0.3
v -0.1 0 0.2
v -0.1 0.1 0.7
v -0.1 0.1 0.6
v -0.1 0.1 0.3
v -0.1 0.1 0.2
v 0 0 0
v 0 0 -0.1
v 0 0 -0.2
v 0 0.1 0
v 0 0.1 -0.1
v 0 0.1 -0.2
v 0 0.2 0
v 0 0.2 -0.1
v 0.1 0 -0.4
v 0.1 0 -0.5
v 0.1 0 -0.6
v 0.1 0.1 -0.4
v 0.1 0.1 -0.5
v 0.1 0.1 -0.6
v 0.1 0.2 -0.5
v 0.1 0.2 -0.6
v 0.2 0 0.5
v 0.2 0 0.4
v 0.2 0 0.3
v 0.2 0 -0.7
v 0.2 0 -0.8
v 0.2 0.1 0.5
v 0.2 0.1 0.4
v 0.2 0.1 0.3
v 0.2 0.1 -0.7
v 0.2 0.1 -0.8
v 0.2 0.2 0.4
v 0.2 0.2 0.3
v 0.3 0 -0.1
v 0.3 0 -0.2
v 0.3 0.1 -0.1
v 0.3 0.1 -0.2
v 0.5 0.1 0.6
v 0.5 0.1 0.5
v 0.5 0.1 -0.4
v 0.5 0.1 -0.5
v 0.5 0.2 0.6
v 0.5 0.2 0.5
v 0.5 0.2 -0.4
v 0.5 0.2 -0.5
v 0.6 0 0.7
v 0.6 0 0.5
v 0.6 0 0.3
v 0.6 0 0.2
v 0.6 0 -0.4
v 0.6 0 -0.6
v 0.6 0.1 0.7
v 0.6 0.1 0.5
v 0.6 0.1 0.3
v 0.6 0.1 0.2
v 0.6 0.1 0
v 0.6 0.1 -0.1
v 0.6 0.1 -0.4
v 0.6 0.1 -0.6
v 0.6 0.2 0
v 0.6 0.2 -0.1
v 0.7 0 0.1
v 0.7 0 0
v 0.7 0 -0.1
v 0.7 0.1 0.1
v 0.7 0.1 0
v 0.7 0.1 -0.1
v -0.8 0 0.7
v -0.8 0.1 0.7
v -0.7 0 0.7
v -0.7 0.1 0.7
v -0.2 0 0.7
v -0.2 0.1 0.7
v -0.1 0 0.7
v -0.1 0.1 0.7
v 0.4 0 0.7
v 0.4 0.1 0.7
v 0.5 0 0.7
v 0.5 0.1 0.7
v 0.6 0 0.7
v 0.6 0.1 0.7
v -0.6 0 0.6
v -0.6 0.1 0.6
v -0.4 0 0.6
v -0.4 0.1 0.6
v 0.4 0.1 0.6
v 0.4 0.2 0.6
v 0.5 0.1 0.6
v 0.5 0.2 0.6
v -0.6 0.1 0.5
v -0.6 0.2 0.5
v -0.5 0.1 0.5
v -0.5 0.2 0.5
v 0 0 0.5
v 0 0.1 0.5
v 0.2 0 0.5
v 0.2 0.1 0.5
v 0.1 0.1 0.4
v 0.1 0.2 0.4
v 0.2 0.1 0.4
v 0.2 0.2 0.4
v -0.2 0 0.3
v -0.2 0.1 0.3
v -0.1 0 0.3
v -0.1 0.1 0.3
v 0.5 0 0.3
v 0.5 0.1 0.3
v 0.6 0 0.3
v 0.6 0.1 0.3
v -0.6 0 0.1
v -0.6 0.1 0.1
v -0.4 0 0.1
v -0.4 0.1 0.1
v 0.5 0 0.1
v 0.5 0.1 0.1
v 0.7 0 0.1
v 0.7 0.1 0.1
v -0.5 0.1 0
v -0.5 0.2 0
v -0.4 0.1 0
v -0.4 0.2 0
v -0.2 0 0
v -0.2 0.1 0
v -0.1 0.1 0
v -0.1 0.2 0
v 0 0 0
v 0 0.1 0
v 0 0.2 0
v 0.5 0.1 0
v 0.5 0.2 0
v 0.6 0.1 0
v 0.6 0.2 0
v 0.2 0 -0.1
v 0.2 0.1 -0.1
v 0.3 0 -0.1
v 0.3 0.1 -0.1
v -0.8 0 -0.2
v -0.8 0.1 -0.2
v -0.7 0 -0.2
v -0.7 0.1 -0.2
v -0.7 0 -0.4
v -0.7 0.1 -0.4
v -0.6 0.1 -0.4
v -0.6 0.2 -0.4
v -0.5 0 -0.4
v -0.5 0.2 -0.4
v -0.3 0 -0.4
v -0.3 0.1 -0.4
v -0.2 0 -0.4
v -0.2 0.1 -0.4
v -0.1 0 -0.4
v -0.1 0.1 -0.4
v 0 0 -0.4
v 0 0.1 -0.4
v 0.1 0 -0.4
v 0.1 0.1 -0.4
v 0.4 0 -0.4
v 0.4 0.2 -0.4
v 0.5 0.1 -0.4
v 0.5 0.2 -0.4
v 0.6 0 -0.4
v 0.6 0.1 -0.4
v 0 0.1 -0.5
v 0 0.2 -0.5
v 0.1 0.1 -0.5
v 0.1 0.2 -0.5
v 0.1 0 -0.7
v 0.1 0.1 -0.7
v 0.2 0 -0.7
v 0.2 0.1 -0.7
v -0.8 0 0.6
v -0.8 0.1 0.6
v -0.7 0 0.6
v -0.7 0.1 0.6
v -0.2 0 0.6
v -0.2 0.1 0.6
v -0.1 0 0.6
v -0.1 0.1 0.6
v 0.4 0 0.5
v 0.4 0.2 0.5
v 0.5 0 0.5
v 0.5 0.1 0.5
v 0.5 0.2 0.5
v 0.6 0 0.5
v 0.6 0.1 0.5
v -0.6 0 0.4
v -0.6 0.1 0.4
v -0.6 0.2 0.4
v -0.5 0 0.4
v -0.5 0.1 0.4
v -0.5 0.2 0.4
v -0.4 0 0.4
v -0.4 0.1 0.4
v 0 0 0.3
v 0 0.1 0.3
v 0.1 0 0.3
v 0.1 0.1 0.3
v 0.1 0.2 0.3
v 0.2 0 0.3
v 0.2 0.1 0.3
v 0.2 0.2 0.3
v -0.2 0 0.2
v -0.2 0.1 0.2
v -0.1 0 0.2
v -0.1 0.1 0.2
v 0.5 0 0.2
v 0.5 0.1 0.2
v 0.6 0 0.2
v 0.6 0.1 0.2
v -0.6 0 -0.1
v -0.6 0.1 -0.1
v -0.5 0 -0.1
v -0.5 0.1 -0.1
v -0.5 0.2 -0.1
v -0.4 0 -0.1
v -0.4 0.2 -0.1
v -0.1 0.1 -0.1
v -0.1 0.2 -0.1
v 0 0.1 -0.1
v 0 0.2 -0.1
v 0.5 0 -0.1
v 0.5 0.1 -0.1
v 0.5 0.2 -0.1
v 0.6 0.1 -0.1
v 0.6 0.2 -0.1
v 0.7 0 -0.1
v 0.7 0.1 -0.1
v -0.2 0 -0.2
v -0.2 0.1 -0.2
v 0 0 -0.2
v 0 0.1 -0.2
v 0.2 0 -0.2
v 0.2 0.1 -0.2
v 0.3 0 -0.2
v 0.3 0.1 -0.2
v -0.8 0 -0.3
v -0.8 0.1 -0.3
v -0.7 0 -0.3
v -0.7 0.1 -0.3
v -0.6 0.1 -0.5
v -0.6 0.2 -0.5
v -0.5 0.1 -0.5
v -0.5 0.2 -0.5
v -0.3 0 -0.5
v -0.3 0.1 -0.5
v -0.2 0 -0.5
v -0.2 0.1 -0.5
v 0.4 0.1 -0.5
v 0.4 0.2 -0.5
v 0.5 0.1 -0.5
v 0.5 0.2 -0.5
v -0.7 0 -0.6
v -0.7 0.1 -0.6
v -0.6 0 -0.6
v -0.6 0.1 -0.6
v -0.5 0 -0.6
v -0.5 0.1 -0.6
v -0.1 0 -0.6
v -0.1 0.1 -0.6
v 0 0 -0.6
v 0 0.1 -0.6
v 0 0.2 -0.6
v 0.1 0 -0.6
v 0.1 0.1 -0.6
v 0.1 0.2 -0.6
v 0.4 0 -0.6
v 0.4 0.1 -0.6
v 0.6 0 -0.6
v 0.6 0.1 -0.6
v 0.1 0 -0.8
v 0.1 0.1 -0.8
v 0.2 0 -0.8
v 0.2 0.1 -0.8
v -0.8 0 0.7
v -0.7 0 0.7
v -0.2 0 0.7
v -0.1 0 0.7
v 0.4 0 0.7
v 0.5 0 0.7
v 0.6 0 0.7
v -0.8 0 0.6
v -0.7 0 0.6
v -0.6 0 0.6
v -0.4 0 0.6
v -0.2 0 0.6
v -0.1 0 0.6
v 0.4 0 0.6
v 0.5 0 0.6
v -0.6 0 0.5
v -0.5 0 0.5
v -0.4 0 0.5
v 0 0 0.5
v 0.2 0 0.5
v 0.4 0 0.5
v 0.5 0 0.5
v 0.6 0 0.5
v -0.6 0 0.4
v -0.5 0 0.4
v -0.4 0 0.4
v 0 0 0.4
v 0.1 0 0.4
v 0.2 0 0.4
v -0.2 0 0.3
v -0.1 0 0.3
v 0 0 0.3
v 0.1 0 0.3
v 0.2 0 0.3
v 0.5 0 0.3
v 0.6 0 0.3
v -0.2 0 0.2
v -0.1 0 0.2
v 0.5 0 0.2
v 0.6 0 0.2
v -0.6 0 0.1
v -0.4 0 0.1
v 0.5 0 0.1
v 0.7 0 0.1
v -0.5 0 0
v -0.4 0 0
v -0.2 0 0
v 0 0 0
v 0.5 0 0
v 0.7 0 0
v -0.6 0 -0.1
v -0.5 0 -0.1
v -0.4 0 -0.1
v -0.2 0 -0.1
v 0 0 -0.1
v 0.2 0 -0.1
v 0.3 0 -0.1
v 0.5 0 -0.1
v 0.7 0 -0.1
v -0.8 0 -0.2
v -0.7 0 -0.2
v -0.2 0 -0.2
v 0 0 -0.2
v 0.2 0 -0.2
v 0.3 0 -0.2
v -0.8 0 -0.3
v -0.7 0 -0.3
v -0.7 0 -0.4
v -0.5 0 -0.4
v -0.3 0 -0.4
v -0.2 0 -0.4
v -0.1 0 -0.4
v 0 0 -0.4
v 0.1 0 -0.4
v 0.4 0 -0.4
v 0.6 0 -0.4
v -0.7 0 -0.5
v -0.6 0 -0.5
v -0.5 0 -0.5
v -0.3 0 -0.5
v -0.2 0 -0.5
v 0 0 -0.5
v 0.1 0 -0.5
v -0.7 0 -0.6
v -0.6 0 -0.6
v -0.5 0 -0.6
v -0.1 0 -0.6
v 0 0 -0.6
v 0.1 0 -0.6
v 0.4 0 -0.6
v 0.6 0 -0.6
v 0.1 0 -0.7
v 0.2 0 -0.7
v 0.1 0 -0.8
v 0.2 0 -0.8
v -0.8 0.1 0.7
v -0.7 0.1 0.7
v -0.2 0.1 0.7
v -0.1 0.1 0.7
v 0.4 0.1 0.7
v 0.5 0.1 0.7
v 0.6 0.1 0.7
v -0.8 0.1 0.6
v -0.7 0.1 0.6
v -0.6 0.1 0.6
v -0.4 0.1 0.6
v -0.2 0.1 0.6
v -0.1 0.1 0.6
v 0.4 0.1 0.6
v 0.5 0.1 0.6
v -0.6 0.1 0.5
v -0.5 0.1 0.5
v -0.4 0.1 0.5
v 0 0.1 0.5
v 0.2 0.1 0.5
v 0.5 0.1 0.5
v 0.6 0.1 0.5
v -0.5 0.1 0.4
v -0.4 0.1 0.4
v 0 0.1 0.4
v 0.1 0.1 0.4
v 0.2 0.1 0.4
v -0.2 0.1 0.3
v -0.1 0.1 0.3
v 0 0.1 0.3
v 0.1 0.1 0.3
v 0.5 0.1 0.3
v 0.6 0.1 0.3
v -0.2 0.1 0.2
v -0.1 0.1 0.2
v 0.5 0.1 0.2
v 0.6 0.1 0.2
v -0.6 0.1 0.1
v -0.4 0.1 0.1
v 0.5 0.1 0.1
v 0.7 0.1 0.1
v -0.5 0.1 0
v -0.4 0.1 0
v -0.2 0.1 0
v -0.1 0.1 0
v 0.5 0.1 0
v 0.6 0.1 0
v 0.7 0.1 0
v -0.6 0.1 -0.1
v -0.5 0.1 -0.1
v -0.2 0.1 -0.1
v -0.1 0.1 -0.1
v 0 0.1 -0.1
v 0.2 0.1 -0.1
v 0.3 0.1 -0.1
v 0.6 0.1 -0.1
v 0.7 0.1 -0.1
v -0.8 0.1 -0.2
v -0.7 0.1 -0.2
v -0.2 0.1 -0.2
v 0 0.1 -0.2
v 0.2 0.1 -0.2
v 0.3 0.1 -0.2
v -0.8 0.1 -0.3
v -0.7 0.1 -0.3
v -0.7 0.1 -0.4
v -0.6 0.1 -0.4
v -0.3 0.1 -0.4
v -0.2 0.1 -0.4
v -0.1 0.1 -0.4
v 0 0.1 -0.4
v 0.1 0.1 -0.4
v 0.5 0.1 -0.4
v 0.6 0.1 -0.4
v -0.7 0.1 -0.5
v -0.6 0.1 -0.5
v -0.5 0.1 -0.5
v -0.3 0.1 -0.5
v -0.2 0.1 -0.5
v 0 0.1 -0.5
v 0.1 0.1 -0.5
v 0.4 0.1 -0.5
v 0.5 0.1 -0.5
v -0.7 0.1 -0.6
v -0.6 0.1 -0.6
v -0.5 0.1 -0.6
v -0.1 0.1 -0.6
v 0 0.1 -0.6
v 0.4 0.1 -0.6
v 0.6 0.1 -0.6
v 0.1 0.1 -0.7
v 0.2 0.1 -0.7
v 0.1 0.1 -0.8
v 0.2 0.1 -0.8
v 0.4 0.2 0.6
v 0.5 0.2 0.6
v -0.6 0.2 0.5
v -0.5 0.2 0.5
v 0.4 0.2 0.5
v 0.5 0.2 0.5
v -0.6 0.2 0.4
v -0.5 0.2 0.4
v 0.1 0.2 0.4
v 0.2 0.2 0.4
v 0.1 0.2 0.3
v 0.2 0.2 0.3
v -0.5 0.2 0
v -0.4 0.2 0
v -0.1 0.2 0
v 0 0.2 0
v 0.5 0.2 0
v 0.6 0.2 0
v -0.5 0.2 -0.1
v -0.4 0.2 -0.1
v -0.1 0.2 -0.1
v 0 0.2 -0.1
v 0.5 0.2 -0.1
v 0.6 0.2 -0.1
v -0.6 0.2 -0.4
v -0.5 0.2 -0.4
v 0.4 0.2 -0.4
v 0.5 0.2 -0.4
v -0.6 0.2 -0.5
v -0.5 0.2 -0.5
v 0 0.2 -0.5
v 0.1 0.2 -0.5
v 0.4 0.2 -0.5
v 0.5 0.2 -0.5
v 0 0.2 -0.6
v 0.1 0.2 -0.6

# faces
f 5/3/1 2/3/1 1/3/1
f 6/3/1 2/3/1 5/3/1
f 7/1/1 4/1/1 3/1/1
f 8/1/1 4/1/1 7/1/1
f 12/1/1 10/1/1 9/1/1
f 13/2/1 11/2/1 10/2/1
f 13/1/1 10/1/1 12/1/1
f 14/2/1 11/2/1 13/2/1
f 20/3/1 16/3/1 15/3/1
f 21/2/1 17/2/1 16/2/1
f 21/3/1 16/3/1 20/3/1
f 22/2/1 17/2/1 21/2/1
f 23/3/1 19/3/1 18/3/1
f 24/3/1 19/3/1 23/3/1
f 27/3/1 22/3/1 21/3/1
f 28/3/1 22/3/1 27/3/1
f 29/1/1 26/1/1 25/1/1
f 30/1/1 26/1/1 29/1/1
f 33/1/1 32/1/1 31/1/1
f 34/1/1 32/1/1 33/1/1
f 37/1/1 36/1/1 35/1/1
f 38/1/1 36/1/1 37/1/1
f 46/1/1 40/1/1 39/1/1
f 47/1/1 40/1/1 46/1/1
f 48/3/1 42/3/1 41/3/1
f 49/3/1 42/3/1 48/3/1
f 50/3/1 44/3/1 43/3/1
f 51/1/1 45/1/1 44/1/1
f 51/3/1 44/3/1 50/3/1
f 52/1/1 45/1/1 51/1/1
f 57/1/1 54/1/1 53/1/1
f 58/1/1 54/1/1 57/1/1
f 59/1/1 56/1/1 55/1/1
f 60/1/1 56/1/1 59/1/1
f 64/3/1 62/3/1 61/3/1
f 65/1/1 63/1/1 62/1/1
f 65/3/1 62/3/1 64/3/1
f 66/1/1 63/1/1 65/1/1
f 69/1/1 68/1/1 67/1/1
f 70/1/1 68/1/1 69/1/1
f 75/1/1 72/1/1 71/1/1
f 76/1/1 72/1/1 75/1/1
f 77/1/1 74/1/1 73/1/1
f 78/1/1 74/1/1 77/1/1
f 81/3/1 80/3/1 79/3/1
f 82/3/1 80/3/1 81/3/1
f 88/1/1 84/1/1 83/1/1
f 89/3/1 85/3/1 84/3/1
f 89/1/1 84/1/1 88/1/1
f 90/1/1 87/1/1 86/1/1
f 91/1/1 87/1/1 90/1/1
f 92/3/1 85/3/1 89/3/1
f 93/3/1 85/3/1 92/3/1
f 94/1/1 90/1/1 86/1/1
f 95/1/1 90/1/1 94/1/1
f 101/1/1 97/1/1 96/1/1
f 102/1/1 97/1/1 101/1/1
f 103/3/1 99/3/1 98/3/1
f 104/1/1 100/1/1 99/1/1
f 104/3/1 99/3/1 103/3/1
f 105/1/1 100/1/1 104/1/1
f 106/3/1 105/3/1 104/3/1
f 107/3/1 105/3/1 106/3/1
f 108/3/2 109/3/2 112/3/2
f 112/3/2 109/3/2 113/3/2
f 110/1/2 111/1/2 114/1/2
f 114/1/2 111/1/2 115/1/2
f 116/1/2 117/1/2 121/1/2
f 117/3/2 118/3/2 121/3/2
f 121/3/2 118/3/2 122/3/2
f 119/3/2 120/3/2 123/3/2
f 123/3/2 120/3/2 124/3/2
f 116/1/2 121/1/2 125/1/2
f 125/1/2 121/1/2 126/1/2
f 127/3/2 128/3/2 133/3/2
f 128/1/2 129/1/2 134/1/2
f 133/3/2 128/3/2 134/3/2
f 134/1/2 129/1/2 135/1/2
f 130/3/2 131/3/2 136/3/2
f 131/1/2 132/1/2 137/1/2
f 136/3/2 131/3/2 137/3/2
f 137/1/2 132/1/2 138/1/2
f 138/1/2 132/1/2 139/1/2
f 140/1/2 141/1/2 142/1/2
f 142/1/2 141/1/2 143/1/2
f 144/1/2 145/1/2 148/1/2
f 148/1/2 145/1/2 149/1/2
f 146/3/2 147/3/2 150/3/2
f 150/3/2 147/3/2 151/3/2
f 152/3/2 153/3/2 155/3/2
f 153/1/2 154/1/2 156/1/2
f 155/3/2 153/3/2 156/3/2
f 156/1/2 154/1/2 157/1/2
f 155/1/2 156/1/2 158/1/2
f 158/1/2 156/1/2 159/1/2
f 160/3/2 161/3/2 163/3/2
f 161/2/2 162/2/2 164/2/2
f 163/3/2 161/3/2 164/3/2
f 164/2/2 162/2/2 165/2/2
f 164/1/2 165/1/2 166/1/2
f 166/1/2 165/1/2 167/1/2
f 168/3/2 169/3/2 173/3/2
f 169/2/2 170/2/2 174/2/2
f 173/3/2 169/3/2 174/3/2
f 174/2/2 170/2/2 175/2/2
f 171/1/2 172/1/2 176/1/2
f 176/1/2 172/1/2 177/1/2
f 174/1/2 175/1/2 178/1/2
f 178/1/2 175/1/2 179/1/2
f 180/3/2 181/3/2 182/3/2
f 182/3/2 181/3/2 183/3/2
f 184/3/2 185/3/2 188/3/2
f 188/3/2 185/3/2 189/3/2
f 186/1/2 187/1/2 190/1/2
f 190/1/2 187/1/2 191/1/2
f 192/2/2 193/2/2 198/2/2
f 198/2/2 193/2/2 199/2/2
f 194/1/2 195/1/2 200/1/2
f 200/1/2 195/1/2 201/1/2
f 196/1/2 197/1/2 204/1/2
f 204/1/2 197/1/2 205/1/2
f 202/3/2 203/3/2 206/3/2
f 206/3/2 203/3/2 207/3/2
f 208/3/2 209/3/2 211/3/2
f 209/1/2 210/1/2 212/1/2
f 211/3/2 209/3/2 212/3/2
f 212/1/2 210/1/2 213/1/2
f 216/3/3 215/3/3 214/3/3
f 217/3/3 215/3/3 216/3/3
f 220/1/3 219/1/3 218/1/3
f 221/1/3 219/1/3 220/1/3
f 224/1/3 223/1/3 222/1/3
f 225/1/3 223/1/3 224/1/3
f 226/2/3 225/2/3 224/2/3
f 227/2/3 225/2/3 226/2/3
f 230/3/3 229/3/3 228/3/3
f 231/3/3 229/3/3 230/3/3
f 234/3/3 233/3/3 232/3/3
f 235/3/3 233/3/3 234/3/3
f 238/3/3 237/3/3 236/3/3
f 239/3/3 237/3/3 238/3/3
f 242/3/3 241/3/3 240/3/3
f 243/3/3 241/3/3 242/3/3
f 246/1/3 245/1/3 244/1/3
f 247/1/3 245/1/3 246/1/3
f 250/3/3 249/3/3 248/3/3
f 251/3/3 249/3/3 250/3/3
f 254/1/3 253/1/3 252/1/3
f 255/1/3 253/1/3 254/1/3
f 258/3/3 257/3/3 256/3/3
f 259/3/3 257/3/3 258/3/3
f 262/3/3 261/3/3 260/3/3
f 263/3/3 261/3/3 262/3/3
f 266/1/3 265/1/3 264/1/3
f 267/1/3 265/1/3 266/1/3
f 270/3/3 269/3/3 268/3/3
f 272/3/3 270/3/3 268/3/3
f 273/1/3 271/1/3 270/1/3
f 273/3/3 270/3/3 272/3/3
f 274/1/3 271/1/3 273/1/3
f 277/3/3 276/3/3 275/3/3
f 278/3/3 276/3/3 277/3/3
f 281/3/3 280/3/3 279/3/3
f 282/3/3 280/3/3 281/3/3
f 285/1/3 284/1/3 283/1/3
f 286/1/3 284/1/3 285/1/3
f 289/1/3 288/1/3 287/1/3
f 291/1/3 289/1/3 287/1/3
f 291/1/3 290/1/3 289/1/3
f 292/1/3 290/1/3 291/1/3
f 295/1/3 294/1/3 293/1/3
f 296/1/3 294/1/3 295/1/3
f 299/1/3 298/1/3 297/1/3
f 300/1/3 298/1/3 299/1/3
f 301/3/3 300/3/3 299/3/3
f 302/3/3 300/3/3 301/3/3
f 305/1/3 304/1/3 303/1/3
f 306/1/3 304/1/3 305/1/3
f 307/1/3 305/1/3 303/1/3
f 308/1/3 305/1/3 307/1/3
f 311/1/3 310/1/3 309/1/3
f 312/1/3 310/1/3 311/1/3
f 315/1/3 314/1/3 313/1/3
f 316/1/3 314/1/3 315/1/3
f 317/3/4 318/3/4 319/3/4
f 319/3/4 318/3/4 320/3/4
f 321/1/4 322/1/4 323/1/4
f 323/1/4 322/1/4 324/1/4
f 325/3/4 326/3/4 327/3/4
f 327/3/4 326/3/4 328/3/4
f 328/3/4 326/3/4 329/3/4
f 327/2/4 328/2/4 330/2/4
f 330/2/4 328/2/4 331/2/4
f 332/2/4 333/2/4 335/2/4
f 333/3/4 334/3/4 336/3/4
f 335/2/4 333/2/4 336/2/4
f 336/3/4 334/3/4 337/3/4
f 335/1/4 336/1/4 338/1/4
f 338/1/4 336/1/4 339/1/4
f 340/1/4 341/1/4 342/1/4
f 342/1/4 341/1/4 343/1/4
f 342/2/4 343/2/4 345/2/4
f 343/1/4 344/1/4 346/1/4
f 345/2/4 343/2/4 346/2/4
f 346/1/4 344/1/4 347/1/4
f 348/3/4 349/3/4 350/3/4
f 350/3/4 349/3/4 351/3/4
f 352/1/4 353/1/4 354/1/4
f 354/1/4 353/1/4 355/1/4
f 356/3/4 357/3/4 358/3/4
f 358/3/4 357/3/4 359/3/4
f 358/1/4 359/1/4 361/1/4
f 359/1/4 360/1/4 361/1/4
f 361/1/4 360/1/4 362/1/4
f 363/1/4 364/1/4 365/1/4
f 365/1/4 364/1/4 366/1/4
f 367/1/4 368/1/4 370/1/4
f 368/3/4 369/3/4 370/3/4
f 370/3/4 369/3/4 371/3/4
f 367/1/4 370/1/4 372/1/4
f 372/1/4 370/1/4 373/1/4
f 374/1/4 375/1/4 376/1/4
f 376/1/4 375/1/4 377/1/4
f 378/3/4 379/3/4 380/3/4
f 380/3/4 379/3/4 381/3/4
f 382/1/4 383/1/4 384/1/4
f 384/1/4 383/1/4 385/1/4
f 386/1/4 387/1/4 388/1/4
f 388/1/4 387/1/4 389/1/4
f 390/1/4 391/1/4 392/1/4
f 392/1/4 391/1/4 393/1/4
f 394/1/4 395/1/4 396/1/4
f 396/1/4 395/1/4 397/1/4
f 398/2/4 399/2/4 400/2/4
f 400/2/4 399/2/4 401/2/4
f 400/3/4 401/3/4 402/3/4
f 402/3/4 401/3/4 403/3/4
f 404/1/4 405/1/4 406/1/4
f 406/1/4 405/1/4 407/1/4
f 406/2/4 407/2/4 409/2/4
f 407/1/4 408/1/4 410/1/4
f 409/2/4 407/2/4 410/2/4
f 410/1/4 408/1/4 411/1/4
f 412/1/4 413/1/4 414/1/4
f 414/1/4 413/1/4 415/1/4
f 416/1/4 417/1/4 418/1/4
f 418/1/4 417/1/4 419/1/4
f 427/3/5 421/3/5 420/3/5
f 428/3/5 421/3/5 427/3/5
f 431/1/5 423/1/5 422/1/5
f 432/1/5 423/1/5 431/1/5
f 433/1/5 425/1/5 424/1/5
f 434/2/5 426/2/5 425/2/5
f 434/1/5 425/1/5 433/1/5
f 435/3/5 430/3/5 429/3/5
f 436/3/5 430/3/5 435/3/5
f 437/3/5 430/3/5 436/3/5
f 440/3/5 434/3/5 433/3/5
f 441/2/5 426/2/5 434/2/5
f 441/3/5 434/3/5 440/3/5
f 442/2/5 426/2/5 441/2/5
f 443/2/5 436/2/5 435/2/5
f 444/1/5 437/1/5 436/1/5
f 444/2/5 436/2/5 443/2/5
f 445/1/5 437/1/5 444/1/5
f 446/3/5 439/3/5 438/3/5
f 447/3/5 439/3/5 446/3/5
f 448/3/5 439/3/5 447/3/5
f 451/1/5 447/1/5 446/1/5
f 452/2/5 448/2/5 447/2/5
f 452/1/5 447/1/5 451/1/5
f 453/2/5 448/2/5 452/2/5
f 456/3/5 450/3/5 449/3/5
f 457/3/5 450/3/5 456/3/5
f 458/1/5 455/1/5 454/1/5
f 459/1/5 455/1/5 458/1/5
f 464/3/5 461/3/5 460/3/5
f 465/3/5 461/3/5 464/3/5
f 468/3/5 463/3/5 462/3/5
f 469/3/5 463/3/5 468/3/5
f 470/3/5 464/3/5 460/3/5
f 471/1/5 465/1/5 464/1/5
f 471/3/5 464/3/5 470/3/5
f 472/1/5 465/1/5 471/1/5
f 473/3/5 467/3/5 466/3/5
f 474/3/5 467/3/5 473/3/5
f 477/1/5 469/1/5 468/1/5
f 478/1/5 469/1/5 477/1/5
f 481/1/5 474/1/5 473/1/5
f 482/1/5 474/1/5 481/1/5
f 483/3/5 476/3/5 475/3/5
f 484/3/5 476/3/5 483/3/5
f 485/1/5 480/1/5 479/1/5
f 486/1/5 480/1/5 485/1/5
f 496/1/5 488/1/5 487/1/5
f 497/1/5 488/1/5 496/1/5
f 498/1/5 488/1/5 497/1/5
f 499/1/5 490/1/5 489/1/5
f 500/1/5 490/1/5 499/1/5
f 501/3/5 493/3/5 492/3/5
f 501/1/5 492/1/5 491/1/5
f 502/3/5 493/3/5 501/3/5
f 503/2/5 497/2/5 496/2/5
f 504/3/5 498/3/5 497/3/5
f 504/2/5 497/2/5 503/2/5
f 505/3/5 498/3/5 504/3/5
f 506/1/5 501/1/5 491/1/5
f 507/2/5 502/2/5 501/2/5
f 507/1/5 501/1/5 506/1/5
f 508/2/5 502/2/5 507/2/5
f 509/1/5 495/1/5 494/1/5
f 510/1/5 495/1/5 509/1/5
f 513/1/5 512/1/5 511/1/5
f 514/1/5 512/1/5 513/1/5
f 515/3/6 516/3/6 522/3/6
f 522/3/6 516/3/6 523/3/6
f 517/1/6 518/1/6 526/1/6
f 526/1/6 518/1/6 527/1/6
f 519/1/6 520/1/6 528/1/6
f 520/2/6 521/2/6 529/2/6
f 528/1/6 520/1/6 529/1/6
f 524/3/6 525/3/6 530/3/6
f 530/3/6 525/3/6 531/3/6
f 531/3/6 525/3/6 532/3/6
f 529/2/6 521/2/6 535/2/6
f 535/2/6 521/2/6 536/2/6
f 531/1/6 532/1/6 537/1/6
f 537/1/6 532/1/6 538/1/6
f 533/3/6 534/3/6 539/3/6
f 539/3/6 534/3/6 540/3/6
f 540/3/6 534/3/6 541/3/6
f 539/1/6 540/1/6 544/1/6
f 544/1/6 540/1/6 545/1/6
f 542/3/6 543/3/6 548/3/6
f 548/3/6 543/3/6 549/3/6
f 546/1/6 547/1/6 550/1/6
f 550/1/6 547/1/6 551/1/6
f 552/3/6 553/3/6 556/3/6
f 556/3/6 553/3/6 557/3/6
f 554/3/6 555/3/6 560/3/6
f 560/3/6 555/3/6 561/3/6
f 561/3/6 555/3/6 562/3/6
f 552/3/6 556/3/6 563/3/6
f 563/3/6 556/3/6 564/3/6
f 558/3/6 559/3/6 565/3/6
f 565/3/6 559/3/6 566/3/6
f 561/1/6 562/1/6 570/1/6
f 570/1/6 562/1/6 571/1/6
f 565/1/6 566/1/6 574/1/6
f 566/1/6 567/1/6 574/1/6
f 574/1/6 567/1/6 575/1/6
f 568/3/6 569/3/6 576/3/6
f 576/3/6 569/3/6 577/3/6
f 572/1/6 573/1/6 578/1/6
f 578/1/6 573/1/6 579/1/6
f 580/1/6 581/1/6 589/1/6
f 589/1/6 581/1/6 590/1/6
f 582/1/6 583/1/6 592/1/6
f 592/1/6 583/1/6 593/1/6
f 585/3/6 586/3/6 594/3/6
f 584/1/6 585/1/6 594/1/6
f 594/3/6 586/3/6 595/3/6
f 587/1/6 588/1/6 597/1/6
f 589/2/6 590/2/6 598/2/6
f 590/3/6 591/3/6 599/3/6
f 598/2/6 590/2/6 599/2/6
f 599/3/6 591/3/6 600/3/6
f 584/1/6 594/1/6 601/1/6
f 601/1/6 594/1/6 602/1/6
f 596/1/6 597/1/6 603/1/6
f 597/1/6 588/1/6 604/1/6
f 603/1/6 597/1/6 604/1/6
f 605/1/6 606/1/6 607/1/6
f 607/1/6 606/1/6 608/1/6
f 609/3/6 610/3/6 613/3/6
f 613/3/6 610/3/6 614/3/6
f 611/3/6 612/3/6 615/3/6
f 615/3/6 612/3/6 616/3/6
f 617/1/6 618/1/6 619/1/6
f 619/1/6 618/1/6 620/1/6
f 621/1/6 622/1/6 627/1/6
f 627/1/6 622/1/6 628/1/6
f 623/1/6 624/1/6 629/1/6
f 629/1/6 624/1/6 630/1/6
f 625/3/6 626/3/6 631/3/6
f 631/3/6 626/3/6 632/3/6
f 633/1/6 634/1/6 637/1/6
f 637/1/6 634/1/6 638/1/6
f 635/1/6 636/1/6 641/1/6
f 641/1/6 636/1/6 642/1/6
f 639/1/6 640/1/6 643/1/6
f 643/1/6 640/1/6 644/1/6
