# MagicaVoxel @ Ephtracy

# group
o 

# material
mtllib lamp-0.mtl
usemtl palette

# normals
vn -1 0 0
vn 1 0 0
vn 0 0 1
vn 0 0 -1
vn 0 -1 0
vn 0 1 0

# texcoords
vt 0.826172 0.5
vt 0.857422 0.5
vt 0.888672 0.5
vt 0.919922 0.5
vt 0.939453 0.5
vt 0.943359 0.5

# verts
v -0.2 0.1 0.2
v -0.2 0.1 0.1
v -0.2 0.1 -0.2
v -0.2 0.2 0.2
v -0.2 0.2 0.1
v -0.2 0.2 -0.1
v -0.2 0.2 -0.2
v -0.2 0.5 -0.1
v -0.2 0.5 -0.2
v -0.2 0.6 0.2
v -0.2 0.6 0.1
v -0.2 0.6 -0.1
v -0.2 0.6 -0.2
v -0.2 0.7 0.1
v -0.2 0.7 -0.1
v -0.1 0 0.1
v -0.1 0 -0.1
v -0.1 0.1 0.1
v -0.1 0.1 -0.1
v -0.1 0.2 0
v -0.1 0.2 -0.1
v -0.1 0.3 0
v -0.1 0.3 -0.1
v -0.1 0.6 0.2
v -0.1 0.6 0.1
v -0.1 0.6 -0.1
v -0.1 0.6 -0.2
v -0.1 0.7 0.2
v -0.1 0.7 0.1
v -0.1 0.7 -0.1
v -0.1 0.7 -0.2
v -0.1 0.8 0
v -0.1 0.8 -0.1
v -0.1 0.9 0.1
v -0.1 0.9 0
v -0.1 0.9 -0.1
v -0.1 1 0.1
v -0.1 1 0
v -0.1 1 -0.1
v -0.1 1.1 0.1
v -0.1 1.1 0
v -0.1 1.1 -0.1
v -0.1 1.2 0
v -0.1 1.2 -0.1
v 0 0.2 0.1
v 0 0.2 0
v 0 0.3 0.1
v 0 0.3 0
v 0 0.3 -0.1
v 0 0.4 0
v 0 0.4 -0.1
v 0 0.8 0
v 0 0.8 -0.1
v 0 0.9 0.1
v 0 0.9 0
v 0 0.9 -0.1
v 0 1 0.1
v 0 1 0
v 0 1 -0.1
v 0 1.1 0.1
v 0 1.1 0
v 0 1.1 -0.1
v 0 1.2 0.1
v 0 1.2 0
v 0.1 0.2 0.2
v 0.1 0.2 0.1
v 0.1 0.2 -0.1
v 0.1 0.2 -0.2
v 0.1 0.3 0.2
v 0.1 0.3 0.1
v 0.1 0.4 -0.1
v 0.1 0.4 -0.2
v 0.1 0.5 -0.1
v 0.1 0.5 -0.2
v 0.1 0.6 0.2
v 0.1 0.6 0.1
v 0.1 0.6 -0.1
v 0.1 0.6 -0.2
v -0.1 0.2 0.2
v -0.1 0.2 0.1
v -0.1 0.2 -0.1
v -0.1 0.2 -0.2
v -0.1 0.3 -0.1
v -0.1 0.5 -0.1
v -0.1 0.5 -0.2
v -0.1 0.6 0.2
v -0.1 0.6 0.1
v -0.1 0.6 -0.1
v -0.1 0.6 -0.2
v 0 0.8 0.1
v 0 0.8 0
v 0 0.9 0.1
v 0 0.9 0
v 0 0.9 -0.1
v 0 1 0.1
v 0 1 0
v 0 1 -0.1
v 0 1.1 0.1
v 0 1.1 0
v 0 1.1 -0.1
v 0 1.2 0
v 0 1.2 -0.1
v 0.1 0 0.1
v 0.1 0 0
v 0.1 0 -0.1
v 0.1 0.1 0.1
v 0.1 0.1 0
v 0.1 0.1 -0.1
v 0.1 0.2 0.1
v 0.1 0.2 -0.1
v 0.1 0.3 0.1
v 0.1 0.3 0
v 0.1 0.4 0
v 0.1 0.4 -0.1
v 0.1 0.6 0.2
v 0.1 0.6 0.1
v 0.1 0.6 -0.1
v 0.1 0.6 -0.2
v 0.1 0.7 0.2
v 0.1 0.7 0.1
v 0.1 0.7 0
v 0.1 0.7 -0.1
v 0.1 0.7 -0.2
v 0.1 0.8 0.1
v 0.1 0.8 0
v 0.1 0.8 -0.1
v 0.1 0.9 0.1
v 0.1 0.9 0
v 0.1 0.9 -0.1
v 0.1 1 0.1
v 0.1 1 0
v 0.1 1 -0.1
v 0.1 1.1 0.1
v 0.1 1.1 0
v 0.1 1.1 -0.1
v 0.1 1.2 0.1
v 0.1 1.2 0
v 0.2 0.1 0.2
v 0.2 0.1 -0.1
v 0.2 0.1 -0.2
v 0.2 0.2 0.2
v 0.2 0.2 0.1
v 0.2 0.2 -0.1
v 0.2 0.2 -0.2
v 0.2 0.3 0.2
v 0.2 0.3 0.1
v 0.2 0.4 -0.1
v 0.2 0.4 -0.2
v 0.2 0.5 -0.1
v 0.2 0.5 -0.2
v 0.2 0.6 0.2
v 0.2 0.6 0.1
v 0.2 0.6 0
v 0.2 0.6 -0.1
v 0.2 0.6 -0.2
v 0.2 0.7 0.1
v 0.2 0.7 0
v 0.2 0.7 -0.1
v -0.2 0.1 0.2
v -0.2 0.2 0.2
v -0.2 0.6 0.2
v -0.1 0.1 0.2
v -0.1 0.2 0.2
v -0.1 0.6 0.2
v -0.1 0.7 0.2
v 0.1 0.2 0.2
v 0.1 0.3 0.2
v 0.1 0.6 0.2
v 0.1 0.7 0.2
v 0.2 0.1 0.2
v 0.2 0.2 0.2
v 0.2 0.3 0.2
v 0.2 0.6 0.2
v -0.2 0.6 0.1
v -0.2 0.7 0.1
v -0.1 0 0.1
v -0.1 0.1 0.1
v -0.1 0.6 0.1
v -0.1 0.7 0.1
v -0.1 0.9 0.1
v -0.1 1 0.1
v -0.1 1.1 0.1
v 0 0 0.1
v 0 0.1 0.1
v 0 0.2 0.1
v 0 0.3 0.1
v 0 0.8 0.1
v 0 0.9 0.1
v 0 1 0.1
v 0 1.1 0.1
v 0 1.2 0.1
v 0.1 0 0.1
v 0.1 0.1 0.1
v 0.1 0.2 0.1
v 0.1 0.3 0.1
v 0.1 0.6 0.1
v 0.1 0.7 0.1
v 0.1 0.8 0.1
v 0.1 0.9 0.1
v 0.1 1 0.1
v 0.1 1.1 0.1
v 0.1 1.2 0.1
v 0.2 0.6 0.1
v 0.2 0.7 0.1
v -0.1 0.2 0
v -0.1 0.3 0
v -0.1 0.9 0
v -0.1 1 0
v -0.1 1.1 0
v -0.1 1.2 0
v 0 0.2 0
v 0 0.3 0
v 0 0.4 0
v 0 0.8 0
v 0 0.9 0
v 0 1 0
v 0 1.1 0
v 0 1.2 0
v 0.1 0.3 0
v 0.1 0.4 0
v 0.1 0.8 0
v 0.1 0.9 0
v 0.1 1 0
v 0.1 1.1 0
v -0.2 0.2 -0.1
v -0.2 0.5 -0.1
v -0.2 0.6 -0.1
v -0.1 0.2 -0.1
v -0.1 0.3 -0.1
v -0.1 0.5 -0.1
v -0.1 0.6 -0.1
v 0.1 0.2 -0.1
v 0.1 0.4 -0.1
v 0.1 0.5 -0.1
v 0.1 0.6 -0.1
v 0.2 0.2 -0.1
v 0.2 0.4 -0.1
v 0.2 0.5 -0.1
v 0.2 0.6 -0.1
v -0.2 0.2 0.1
v -0.2 0.6 0.1
v -0.1 0.2 0.1
v -0.1 0.6 0.1
v 0.1 0.2 0.1
v 0.1 0.3 0.1
v 0.1 0.6 0.1
v 0.2 0.2 0.1
v 0.2 0.3 0.1
v 0.2 0.6 0.1
v -0.1 0.8 0
v -0.1 0.9 0
v -0.1 1 0
v -0.1 1.1 0
v 0 0.8 0
v 0 0.9 0
v 0 1 0
v 0 1.1 0
v 0 1.2 0
v 0.1 0.9 0
v 0.1 1 0
v 0.1 1.1 0
v 0.1 1.2 0
v -0.2 0.6 -0.1
v -0.2 0.7 -0.1
v -0.1 0 -0.1
v -0.1 0.1 -0.1
v -0.1 0.2 -0.1
v -0.1 0.3 -0.1
v -0.1 0.6 -0.1
v -0.1 0.7 -0.1
v -0.1 0.8 -0.1
v -0.1 0.9 -0.1
v -0.1 1 -0.1
v -0.1 1.1 -0.1
v -0.1 1.2 -0.1
v 0 0.3 -0.1
v 0 0.4 -0.1
v 0 0.7 -0.1
v 0 0.8 -0.1
v 0 0.9 -0.1
v 0 1 -0.1
v 0 1.1 -0.1
v 0 1.2 -0.1
v 0.1 0 -0.1
v 0.1 0.1 -0.1
v 0.1 0.2 -0.1
v 0.1 0.4 -0.1
v 0.1 0.6 -0.1
v 0.1 0.7 -0.1
v 0.1 0.8 -0.1
v 0.1 0.9 -0.1
v 0.1 1 -0.1
v 0.1 1.1 -0.1
v 0.2 0.6 -0.1
v 0.2 0.7 -0.1
v -0.2 0.1 -0.2
v -0.2 0.2 -0.2
v -0.2 0.5 -0.2
v -0.2 0.6 -0.2
v -0.1 0.2 -0.2
v -0.1 0.5 -0.2
v -0.1 0.6 -0.2
v -0.1 0.7 -0.2
v 0 0.6 -0.2
v 0 0.7 -0.2
v 0.1 0.1 -0.2
v 0.1 0.2 -0.2
v 0.1 0.4 -0.2
v 0.1 0.5 -0.2
v 0.1 0.6 -0.2
v 0.1 0.7 -0.2
v 0.2 0.1 -0.2
v 0.2 0.2 -0.2
v 0.2 0.4 -0.2
v 0.2 0.5 -0.2
v 0.2 0.6 -0.2
v -0.1 0 0.1
v 0 0 0.1
v 0.1 0 0.1
v 0 0 0
v 0.1 0 0
v -0.1 0 -0.1
v 0.1 0 -0.1
v -0.2 0.1 0.2
v -0.1 0.1 0.2
v 0.2 0.1 0.2
v -0.2 0.1 0.1
v -0.1 0.1 0.1
v 0 0.1 0.1
v 0.1 0.1 0.1
v 0.1 0.1 0
v -0.1 0.1 -0.1
v 0.1 0.1 -0.1
v 0.2 0.1 -0.1
v -0.2 0.1 -0.2
v 0.1 0.1 -0.2
v 0.2 0.1 -0.2
v -0.1 0.6 0.2
v 0.1 0.6 0.2
v -0.2 0.6 0.1
v -0.1 0.6 0.1
v 0.1 0.6 0.1
v 0.2 0.6 0.1
v 0.1 0.6 0
v 0.2 0.6 0
v -0.2 0.6 -0.1
v -0.1 0.6 -0.1
v 0 0.6 -0.1
v 0.1 0.6 -0.1
v 0.2 0.6 -0.1
v -0.1 0.6 -0.2
v 0 0.6 -0.2
v 0.1 0.6 -0.2
v 0 0.9 0.1
v 0.1 0.9 0.1
v -0.1 0.9 0
v 0 0.9 0
v 0.1 0.9 0
v -0.1 0.9 -0.1
v 0 0.9 -0.1
v -0.1 1 0.1
v 0 1 0.1
v -0.1 1 0
v 0 1 0
v 0.1 1 0
v 0 1 -0.1
v 0.1 1 -0.1
v 0 1.1 0.1
v 0.1 1.1 0.1
v -0.1 1.1 0
v 0 1.1 0
v 0.1 1.1 0
v -0.1 1.1 -0.1
v 0 1.1 -0.1
v -0.1 0.2 0.2
v 0.1 0.2 0.2
v -0.2 0.2 0.1
v -0.1 0.2 0.1
v 0 0.2 0.1
v 0.1 0.2 0.1
v 0.2 0.2 0.1
v -0.1 0.2 0
v 0 0.2 0
v -0.2 0.2 -0.1
v -0.1 0.2 -0.1
v 0.1 0.2 -0.1
v 0.2 0.2 -0.1
v -0.1 0.2 -0.2
v 0.1 0.2 -0.2
v 0 0.3 0.1
v 0.1 0.3 0.1
v -0.1 0.3 0
v 0 0.3 0
v 0.1 0.3 0
v -0.1 0.3 -0.1
v 0 0.3 -0.1
v 0 0.4 0
v 0.1 0.4 0
v 0 0.4 -0.1
v 0.1 0.4 -0.1
v -0.2 0.6 0.2
v -0.1 0.6 0.2
v 0.1 0.6 0.2
v 0.2 0.6 0.2
v -0.2 0.6 0.1
v -0.1 0.6 0.1
v 0.1 0.6 0.1
v 0.2 0.6 0.1
v -0.2 0.6 -0.1
v -0.1 0.6 -0.1
v 0.1 0.6 -0.1
v 0.2 0.6 -0.1
v -0.2 0.6 -0.2
v -0.1 0.6 -0.2
v 0.1 0.6 -0.2
v 0.2 0.6 -0.2
v -0.1 0.7 0.2
v 0.1 0.7 0.2
v -0.2 0.7 0.1
v -0.1 0.7 0.1
v 0.1 0.7 0.1
v 0.2 0.7 0.1
v 0.1 0.7 0
v 0.2 0.7 0
v -0.2 0.7 -0.1
v -0.1 0.7 -0.1
v 0 0.7 -0.1
v 0.1 0.7 -0.1
v 0.2 0.7 -0.1
v -0.1 0.7 -0.2
v 0 0.7 -0.2
v 0.1 0.7 -0.2
v 0 0.8 0.1
v 0.1 0.8 0.1
v -0.1 0.8 0
v 0 0.8 0
v 0.1 0.8 0
v -0.1 0.8 -0.1
v 0 0.8 -0.1
v -0.1 0.9 0.1
v 0 0.9 0.1
v -0.1 0.9 0
v 0 0.9 0
v 0.1 0.9 0
v 0 0.9 -0.1
v 0.1 0.9 -0.1
v 0 1 0.1
v 0.1 1 0.1
v -0.1 1 0
v 0 1 0
v 0.1 1 0
v -0.1 1 -0.1
v 0 1 -0.1
v -0.1 1.1 0.1
v 0 1.1 0.1
v -0.1 1.1 0
v 0 1.1 0
v 0.1 1.1 0
v 0 1.1 -0.1
v 0.1 1.1 -0.1
v 0 1.2 0.1
v 0.1 1.2 0.1
v -0.1 1.2 0
v 0 1.2 0
v 0.1 1.2 0
v -0.1 1.2 -0.1
v 0 1.2 -0.1

# faces
f 4/5/1 2/5/1 1/5/1
f 5/3/1 3/3/1 2/3/1
f 5/5/1 2/5/1 4/5/1
f 6/3/1 3/3/1 5/3/1
f 7/3/1 3/3/1 6/3/1
f 8/2/1 7/2/1 6/2/1
f 9/2/1 7/2/1 8/2/1
f 10/2/1 5/2/1 4/2/1
f 11/2/1 5/2/1 10/2/1
f 12/5/1 9/5/1 8/5/1
f 13/5/1 9/5/1 12/5/1
f 14/3/1 12/3/1 11/3/1
f 15/3/1 12/3/1 14/3/1
f 18/3/1 17/3/1 16/3/1
f 19/3/1 17/3/1 18/3/1
f 22/1/1 21/1/1 20/1/1
f 23/1/1 21/1/1 22/1/1
f 28/3/1 25/3/1 24/3/1
f 29/3/1 25/3/1 28/3/1
f 30/3/1 27/3/1 26/3/1
f 31/3/1 27/3/1 30/3/1
f 32/3/1 30/3/1 29/3/1
f 33/3/1 30/3/1 32/3/1
f 34/3/1 32/3/1 29/3/1
f 35/3/1 32/3/1 34/3/1
f 38/4/1 36/4/1 35/4/1
f 39/4/1 36/4/1 38/4/1
f 40/3/1 38/3/1 37/3/1
f 41/3/1 38/3/1 40/3/1
f 43/4/1 42/4/1 41/4/1
f 44/4/1 42/4/1 43/4/1
f 47/1/1 46/1/1 45/1/1
f 48/1/1 46/1/1 47/1/1
f 50/1/1 49/1/1 48/1/1
f 51/1/1 49/1/1 50/1/1
f 55/6/1 53/6/1 52/6/1
f 56/6/1 53/6/1 55/6/1
f 57/4/1 55/4/1 54/4/1
f 58/4/1 55/4/1 57/4/1
f 61/6/1 59/6/1 58/6/1
f 62/6/1 59/6/1 61/6/1
f 63/4/1 61/4/1 60/4/1
f 64/4/1 61/4/1 63/4/1
f 69/5/1 66/5/1 65/5/1
f 70/5/1 66/5/1 69/5/1
f 71/2/1 68/2/1 67/2/1
f 72/2/1 68/2/1 71/2/1
f 73/5/1 72/5/1 71/5/1
f 74/5/1 72/5/1 73/5/1
f 75/2/1 70/2/1 69/2/1
f 76/2/1 70/2/1 75/2/1
f 77/6/1 74/6/1 73/6/1
f 78/6/1 74/6/1 77/6/1
f 81/2/2 82/2/2 83/2/2
f 83/2/2 82/2/2 84/2/2
f 84/2/2 82/2/2 85/2/2
f 79/2/2 80/2/2 86/2/2
f 86/2/2 80/2/2 87/2/2
f 84/5/2 85/5/2 88/5/2
f 88/5/2 85/5/2 89/5/2
f 90/3/2 91/3/2 92/3/2
f 92/3/2 91/3/2 93/3/2
f 93/4/2 94/4/2 96/4/2
f 96/4/2 94/4/2 97/4/2
f 95/3/2 96/3/2 98/3/2
f 98/3/2 96/3/2 99/3/2
f 99/4/2 100/4/2 101/4/2
f 101/4/2 100/4/2 102/4/2
f 103/6/2 104/6/2 106/6/2
f 104/3/2 105/3/2 107/3/2
f 106/6/2 104/6/2 107/6/2
f 107/3/2 105/3/2 108/3/2
f 109/1/2 110/1/2 111/1/2
f 111/1/2 110/1/2 112/1/2
f 112/1/2 110/1/2 113/1/2
f 113/1/2 110/1/2 114/1/2
f 115/3/2 116/3/2 119/3/2
f 119/3/2 116/3/2 120/3/2
f 117/5/2 118/5/2 122/5/2
f 122/5/2 118/5/2 123/5/2
f 120/3/2 121/3/2 124/3/2
f 121/3/2 122/3/2 124/3/2
f 124/3/2 122/3/2 125/3/2
f 125/3/2 122/3/2 126/3/2
f 125/6/2 126/6/2 128/6/2
f 128/6/2 126/6/2 129/6/2
f 127/4/2 128/4/2 130/4/2
f 130/4/2 128/4/2 131/4/2
f 131/6/2 132/6/2 134/6/2
f 134/6/2 132/6/2 135/6/2
f 133/4/2 134/4/2 136/4/2
f 136/4/2 134/4/2 137/4/2
f 138/3/2 139/3/2 141/3/2
f 141/3/2 139/3/2 142/3/2
f 139/5/2 140/5/2 143/5/2
f 142/3/2 139/3/2 143/3/2
f 143/5/2 140/5/2 144/5/2
f 141/5/2 142/5/2 145/5/2
f 145/5/2 142/5/2 146/5/2
f 143/2/2 144/2/2 147/2/2
f 147/2/2 144/2/2 148/2/2
f 147/5/2 148/5/2 149/5/2
f 149/5/2 148/5/2 150/5/2
f 145/2/2 146/2/2 151/2/2
f 151/2/2 146/2/2 152/2/2
f 149/6/2 150/6/2 154/6/2
f 154/6/2 150/6/2 155/6/2
f 152/3/2 153/3/2 156/3/2
f 153/5/2 154/5/2 157/5/2
f 156/3/2 153/3/2 157/3/2
f 157/5/2 154/5/2 158/5/2
f 162/5/3 160/5/3 159/5/3
f 163/2/3 161/2/3 160/2/3
f 163/5/3 160/5/3 162/5/3
f 164/2/3 161/2/3 163/2/3
f 166/3/3 163/3/3 162/3/3
f 168/3/3 165/3/3 164/3/3
f 169/3/3 165/3/3 168/3/3
f 170/3/3 166/3/3 162/3/3
f 171/5/3 167/5/3 166/5/3
f 171/3/3 166/3/3 170/3/3
f 172/2/3 168/2/3 167/2/3
f 172/5/3 167/5/3 171/5/3
f 173/2/3 168/2/3 172/2/3
f 178/3/3 175/3/3 174/3/3
f 179/3/3 175/3/3 178/3/3
f 183/3/3 177/3/3 176/3/3
f 184/3/3 177/3/3 183/3/3
f 187/3/3 180/3/3 179/3/3
f 188/3/3 180/3/3 187/3/3
f 189/3/3 182/3/3 181/3/3
f 190/3/3 182/3/3 189/3/3
f 192/6/3 184/6/3 183/6/3
f 193/6/3 184/6/3 192/6/3
f 194/1/3 186/1/3 185/1/3
f 195/1/3 186/1/3 194/1/3
f 197/3/3 187/3/3 179/3/3
f 198/3/3 187/3/3 197/3/3
f 199/4/3 189/4/3 188/4/3
f 200/4/3 189/4/3 199/4/3
f 201/4/3 191/4/3 190/4/3
f 202/4/3 191/4/3 201/4/3
f 203/3/3 197/3/3 196/3/3
f 204/3/3 197/3/3 203/3/3
f 211/1/3 206/1/3 205/1/3
f 212/1/3 206/1/3 211/1/3
f 215/4/3 208/4/3 207/4/3
f 216/4/3 208/4/3 215/4/3
f 217/4/3 210/4/3 209/4/3
f 218/4/3 210/4/3 217/4/3
f 219/1/3 213/1/3 212/1/3
f 220/1/3 213/1/3 219/1/3
f 221/6/3 215/6/3 214/6/3
f 222/6/3 215/6/3 221/6/3
f 223/6/3 217/6/3 216/6/3
f 224/6/3 217/6/3 223/6/3
f 228/2/3 226/2/3 225/2/3
f 229/2/3 226/2/3 228/2/3
f 230/5/3 227/5/3 226/5/3
f 230/2/3 226/2/3 229/2/3
f 231/5/3 227/5/3 230/5/3
f 236/2/3 233/2/3 232/2/3
f 237/5/3 234/5/3 233/5/3
f 237/2/3 233/2/3 236/2/3
f 238/6/3 235/6/3 234/6/3
f 238/5/3 234/5/3 237/5/3
f 239/6/3 235/6/3 238/6/3
f 240/2/4 241/2/4 242/2/4
f 242/2/4 241/2/4 243/2/4
f 244/5/4 245/5/4 247/5/4
f 245/2/4 246/2/4 248/2/4
f 247/5/4 245/5/4 248/5/4
f 248/2/4 246/2/4 249/2/4
f 250/3/4 251/3/4 254/3/4
f 254/3/4 251/3/4 255/3/4
f 252/3/4 253/3/4 256/3/4
f 256/3/4 253/3/4 257/3/4
f 255/4/4 256/4/4 259/4/4
f 259/4/4 256/4/4 260/4/4
f 257/4/4 258/4/4 261/4/4
f 261/4/4 258/4/4 262/4/4
f 263/3/4 264/3/4 269/3/4
f 269/3/4 264/3/4 270/3/4
f 267/1/4 268/1/4 276/1/4
f 270/3/4 271/3/4 278/3/4
f 278/3/4 271/3/4 279/3/4
f 272/4/4 273/4/4 280/4/4
f 280/4/4 273/4/4 281/4/4
f 274/4/4 275/4/4 282/4/4
f 282/4/4 275/4/4 283/4/4
f 265/3/4 266/3/4 284/3/4
f 284/3/4 266/3/4 285/3/4
f 276/1/4 277/1/4 286/1/4
f 267/1/4 276/1/4 286/1/4
f 286/1/4 277/1/4 287/1/4
f 278/3/4 279/3/4 289/3/4
f 279/6/4 280/6/4 290/6/4
f 289/3/4 279/3/4 290/3/4
f 290/6/4 280/6/4 291/6/4
f 281/6/4 282/6/4 292/6/4
f 292/6/4 282/6/4 293/6/4
f 288/5/4 289/5/4 294/5/4
f 294/5/4 289/5/4 295/5/4
f 296/3/4 297/3/4 300/3/4
f 297/2/4 298/2/4 300/2/4
f 298/5/4 299/5/4 301/5/4
f 300/2/4 298/2/4 301/2/4
f 301/5/4 299/5/4 302/5/4
f 302/3/4 303/3/4 304/3/4
f 304/3/4 303/3/4 305/3/4
f 296/3/4 300/3/4 306/3/4
f 306/3/4 300/3/4 307/3/4
f 304/5/4 305/5/4 310/5/4
f 310/5/4 305/5/4 311/5/4
f 306/5/4 307/5/4 312/5/4
f 307/2/4 308/2/4 313/2/4
f 312/5/4 307/5/4 313/5/4
f 308/5/4 309/5/4 314/5/4
f 313/2/4 308/2/4 314/2/4
f 309/6/4 310/6/4 315/6/4
f 314/5/4 309/5/4 315/5/4
f 315/6/4 310/6/4 316/6/4
f 320/3/5 318/3/5 317/3/5
f 320/6/5 319/6/5 318/6/5
f 321/6/5 319/6/5 320/6/5
f 322/3/5 320/3/5 317/3/5
f 322/3/5 321/3/5 320/3/5
f 323/3/5 321/3/5 322/3/5
f 327/5/5 325/5/5 324/5/5
f 328/3/5 326/3/5 325/3/5
f 328/5/5 325/5/5 327/5/5
f 329/3/5 326/3/5 328/3/5
f 330/3/5 326/3/5 329/3/5
f 331/3/5 326/3/5 330/3/5
f 332/3/5 328/3/5 327/3/5
f 333/3/5 326/3/5 331/3/5
f 334/3/5 326/3/5 333/3/5
f 335/3/5 332/3/5 327/3/5
f 335/3/5 333/3/5 332/3/5
f 336/5/5 334/5/5 333/5/5
f 336/3/5 333/3/5 335/3/5
f 337/5/5 334/5/5 336/5/5
f 341/3/5 339/3/5 338/3/5
f 342/3/5 339/3/5 341/3/5
f 344/3/5 341/3/5 340/3/5
f 344/3/5 343/3/5 342/3/5
f 344/3/5 342/3/5 341/3/5
f 345/3/5 343/3/5 344/3/5
f 346/3/5 344/3/5 340/3/5
f 347/3/5 344/3/5 346/3/5
f 348/3/5 344/3/5 347/3/5
f 349/5/5 345/5/5 344/5/5
f 349/3/5 344/3/5 348/3/5
f 350/5/5 345/5/5 349/5/5
f 351/3/5 348/3/5 347/3/5
f 352/5/5 349/5/5 348/5/5
f 352/3/5 348/3/5 351/3/5
f 353/5/5 349/5/5 352/5/5
f 357/4/5 355/4/5 354/4/5
f 358/4/5 355/4/5 357/4/5
f 359/4/5 357/4/5 356/4/5
f 360/4/5 357/4/5 359/4/5
f 363/3/5 362/3/5 361/3/5
f 364/3/5 362/3/5 363/3/5
f 366/6/5 365/6/5 364/6/5
f 367/6/5 365/6/5 366/6/5
f 371/4/5 369/4/5 368/4/5
f 372/4/5 369/4/5 371/4/5
f 373/4/5 371/4/5 370/4/5
f 374/4/5 371/4/5 373/4/5
f 375/3/6 376/3/6 378/3/6
f 378/3/6 376/3/6 379/3/6
f 379/3/6 376/3/6 380/3/6
f 377/3/6 378/3/6 382/3/6
f 378/3/6 379/3/6 382/3/6
f 382/3/6 379/3/6 383/3/6
f 377/3/6 382/3/6 384/3/6
f 384/3/6 382/3/6 385/3/6
f 380/3/6 381/3/6 386/3/6
f 386/3/6 381/3/6 387/3/6
f 385/3/6 386/3/6 388/3/6
f 388/3/6 386/3/6 389/3/6
f 390/1/6 391/1/6 393/1/6
f 393/1/6 391/1/6 394/1/6
f 392/1/6 393/1/6 395/1/6
f 395/1/6 393/1/6 396/1/6
f 397/1/6 398/1/6 399/1/6
f 399/1/6 398/1/6 400/1/6
f 401/2/6 402/2/6 405/2/6
f 405/2/6 402/2/6 406/2/6
f 403/2/6 404/2/6 407/2/6
f 407/2/6 404/2/6 408/2/6
f 409/5/6 410/5/6 413/5/6
f 413/5/6 410/5/6 414/5/6
f 411/6/6 412/6/6 415/6/6
f 415/6/6 412/6/6 416/6/6
f 417/3/6 418/3/6 420/3/6
f 420/3/6 418/3/6 421/3/6
f 421/3/6 422/3/6 423/3/6
f 423/3/6 422/3/6 424/3/6
f 419/3/6 420/3/6 425/3/6
f 425/3/6 420/3/6 426/3/6
f 423/5/6 424/5/6 428/5/6
f 428/5/6 424/5/6 429/5/6
f 426/3/6 427/3/6 430/3/6
f 427/5/6 428/5/6 431/5/6
f 430/3/6 427/3/6 431/3/6
f 431/5/6 428/5/6 432/5/6
f 433/3/6 434/3/6 436/3/6
f 436/3/6 434/3/6 437/3/6
f 435/3/6 436/3/6 438/3/6
f 438/3/6 436/3/6 439/3/6
f 440/3/6 441/3/6 442/3/6
f 442/3/6 441/3/6 443/3/6
f 443/6/6 444/6/6 445/6/6
f 445/6/6 444/6/6 446/6/6
f 447/4/6 448/4/6 450/4/6
f 450/4/6 448/4/6 451/4/6
f 449/4/6 450/4/6 452/4/6
f 452/4/6 450/4/6 453/4/6
f 454/3/6 455/3/6 456/3/6
f 456/3/6 455/3/6 457/3/6
f 457/6/6 458/6/6 459/6/6
f 459/6/6 458/6/6 460/6/6
f 461/4/6 462/4/6 464/4/6
f 464/4/6 462/4/6 465/4/6
f 463/4/6 464/4/6 466/4/6
f 466/4/6 464/4/6 467/4/6
